<?xml version="1.0" standalone="no"?>
<!DOCTYPE svg PUBLIC "-//W3C//DTD SVG 20010904//EN"
 "http://www.w3.org/TR/2001/REC-SVG-20010904/DTD/svg10.dtd">
<svg version="1.0" xmlns="http://www.w3.org/2000/svg"
 width="500.000000pt" height="500.000000pt" viewBox="0 0 500.000000 500.000000"
 preserveAspectRatio="xMidYMid meet">
<metadata>
Created by potrace 1.14, written by Peter Selinger 2001-2017
</metadata>
<g transform="translate(0.000000,500.000000) scale(0.100000,-0.100000)"
fill="#000000" stroke="none">
<path d="M1840 4991 c0 -12 -59 -71 -71 -71 -5 0 -9 -4 -9 -9 0 -12 -59 -71
-71 -71 -5 0 -9 -4 -9 -9 0 -12 -59 -71 -71 -71 -5 0 -27 -18 -49 -40 -22 -22
-40 -44 -40 -49 0 -12 -59 -71 -71 -71 -5 0 -9 -4 -9 -9 0 -12 -59 -71 -71
-71 -5 0 -9 -4 -9 -9 0 -12 -59 -71 -71 -71 -5 0 -9 -4 -9 -9 0 -12 -59 -71
-71 -71 -12 0 -169 -157 -169 -169 0 -12 -59 -71 -71 -71 -5 0 -9 -4 -9 -9 0
-12 -59 -71 -71 -71 -5 0 -9 -4 -9 -9 0 -12 -59 -71 -71 -71 -12 0 -169 -157
-169 -169 0 -12 -59 -71 -71 -71 -5 0 -9 -4 -9 -9 0 -12 -59 -71 -71 -71 -5 0
-9 -4 -9 -9 0 -12 -59 -71 -71 -71 -5 0 -9 -4 -9 -9 0 -12 -59 -71 -71 -71
-12 0 -89 -77 -89 -89 0 -12 -59 -71 -71 -71 -5 0 -9 -4 -9 -9 0 -12 -59 -71
-71 -71 -5 0 -9 -4 -9 -9 0 -13 -59 -71 -71 -71 -7 0 -9 -359 -6 -1012 3 -988
4 -1015 24 -1106 96 -421 342 -737 708 -911 138 -66 272 -103 430 -121 127
-14 2556 -13 2682 1 612 68 1081 542 1143 1156 8 75 10 508 7 1403 -4 1425 0
1345 -67 1544 -164 492 -594 830 -1114 876 -143 13 -1976 13 -1976 1z m773
-1401 c244 -23 421 -92 538 -209 103 -103 149 -224 149 -391 0 -201 -92 -365
-252 -444 -28 -14 -45 -26 -36 -26 8 0 47 -16 85 -35 157 -79 253 -242 253
-431 0 -147 -42 -291 -111 -384 -101 -134 -235 -206 -462 -246 -76 -13 -179
-16 -607 -18 l-515 -1 -3 1098 -2 1097 427 0 c236 0 477 -5 536 -10z"/>
<path d="M2180 2936 l0 -246 188 0 c256 0 327 21 374 113 26 51 35 155 19 215
-15 55 -64 110 -121 136 -40 18 -68 21 -252 24 l-208 4 0 -246z"/>
<path d="M2180 2076 c0 -198 3 -256 13 -257 6 0 104 -1 217 -1 168 -1 213 2
249 16 69 25 111 63 139 124 21 47 24 64 19 126 -9 117 -42 176 -122 219 -37
20 -57 22 -277 25 l-238 3 0 -255z"/>
</g>
</svg>
